<svg xmlns="http://www.w3.org/2000/svg" viewBox="0 0 52.1 26.1">
<path d="M 0 0 L 52 0 L 52 26 L 0 26 L 0 0" fill="FFFFFF" fill-opacity="0.2"/>

<path d="M 26 0 L 26 26" stroke="#FFFFFF" stroke-width="0.1"/>

<path d="M 15 13 L 9 13 L 9 21 L 15 21 L 15 13 M 43 13 L 37 13 L 37 20 L 43 20 L 43 13" stroke="#000000" stroke-width="0" fill="#FFFFFF" fill-opacity="1"/>
<path d="M 0 0 L 52 0 L 52 26 L 0 26 L 0 0" stroke="#000000" stroke-width="0.1" fill="none"/>

<path d="M 0 11.75 L 3 11.75 L 3 10.25 L 0 10.25 L 0 11.75" fill="FFFFFF" fill-opacity="0.4"/>
<path d="M 0 17.75 L 3 17.75 L 3 16.25 L 0 16.25 L 0 17.75" fill="FFFFFF" fill-opacity="0.4"/>
<path d="M 0 23.75 L 3 23.75 L 3 22.25 L 0 22.25 L 0 23.75" fill="FFFFFF" fill-opacity="0.4"/>

<path d="M 0 8 L 0 10.25 L 3 10.25 L 3 8 " stroke-width="0.1" fill="#0000FF"/>

<path d="M 0 14 L 3 14 L 3 11.75 L 0 11.75 L 0 14 " stroke-width="0.1" fill="#0000FF"/>
<path d="M 0 14 L 0 16.25 L 3 16.25 L 3 14 " fill="#000000" fill-opacity="0.9"/>

<path d="M 0 20 L 3 20 L 3 17.75 L 0 17.75 L 0 20 " stroke-width="0.1" fill="#000000" fill-opacity="0.9"/>
<path d="M 0 20 L 0 22.25 L 3 22.25 L 3 20 " stroke-width="0.1" fill="#0000FF"/>

<path d="M 0 26 L 3 26 L 3 23.75 L 0 23.75 L 0 26 " stroke-width="0.1" fill="#0000FF"/>


<path d="M 0 11.75 L 3 11.75 M 3 10.25 L 0 10.25 M 0 11.75" stroke="#FFFFFF" stroke-width="0.15"/>
<path d="M 0 23.75 L 3 23.75 M 3 22.25 L 0 22.25 M 0 23.75" stroke="#FFFFFF" stroke-width="0.15" fill="none"/>
<path d="M 0 17.75 L 3 17.75 M 3 16.25 L 0 16.25 M 0 17.75" stroke="#FFFFFF" stroke-width="0.15" fill="none"/>

<path d="M 49 11.75 L 52 11.75 L 52 10.25 L 49 10.25 L 49 11.75" fill="FFFFFF" fill-opacity="0.4"/>
<path d="M 49 17.75 L 52 17.75 L 52 16.25 L 49 16.25 L 49 17.75" fill="FFFFFF" fill-opacity="0.4"/>
<path d="M 49 23.75 L 52 23.75 L 52 22.25 L 49 22.25 L 49 23.75" fill="FFFFFF" fill-opacity="0.4"/>

<path d="M 49 8 L 49 10.25 L 52 10.25 L 52 8 " stroke-width="0.1" fill="#FF0000"/>

<path d="M 49 14 L 52 14 L 52 11.75 L 49 11.75 L 49 14 " stroke-width="0.1" fill="#FF0000"/>
<path d="M 49 14 L 49 16.25 L 52 16.25 L 52 14 " fill="#000000" fill-opacity="0.9"/>

<path d="M 49 20 L 52 20 L 52 17.75 L 49 17.75 L 49 20 " stroke-width="0.1" fill="#000000" fill-opacity="0.9"/>
<path d="M 49 20 L 49 22.25 L 52 22.25 L 52 20 " stroke-width="0.1" fill="#FF0000"/>

<path d="M 49 26 L 52 26 L 52 23.75 L 49 23.75 L 49 26 " stroke-width="0.1" fill="#FF0000"/>


<path d="M 49 11.75 L 52 11.75 M 52 10.25 L 49 10.25 M 49 11.75" stroke="#FFFFFF" stroke-width="0.15"/>
<path d="M 49 23.75 L 52 23.75 M 52 22.25 L 49 22.25 M 49 23.75" stroke="#FFFFFF" stroke-width="0.15" fill="none"/>
<path d="M 49 17.75 L 52 17.75 M 52 16.25 L 49 16.25 M 49 17.75" stroke="#FFFFFF" stroke-width="0.15" fill="none"/>


<path d="M 2 10.15 L 4 10.15" stroke-width="0.15" stroke="#FFFFFF" fill="none" />
<path d="M 2 11.85 L 4 11.85" stroke-width="0.15" stroke="#FFFFFF" fill="none" />
<path d="M 2 14 L 4 14" stroke-width="0.15" stroke="#FFFFFF" fill="none" />
<path d="M 2 16.15 L 4 16.15" stroke-width="0.15" stroke="#FFFFFF" fill="none" />
<path d="M 2 17.85 L 4 17.85" stroke-width="0.15" stroke="#FFFFFF" fill="none" />
<path d="M 2 20 L 4 20" stroke-width="0.15" stroke="#FFFFFF" fill="none" />
<path d="M 2 22.15 L 4 22.15" stroke-width="0.15" stroke="#FFFFFF" fill="none" />
<path d="M 2 23.85 L 4 23.85" stroke-width="0.15" stroke="#FFFFFF" fill="none" />
<path d="M 48 10.15 L 50 10.15" stroke-width="0.15" stroke="#FFFFFF" fill="none" />
<path d="M 48 11.85 L 50 11.85" stroke-width="0.15" stroke="#FFFFFF" fill="none" />
<path d="M 48 14 L 50 14" stroke-width="0.15" stroke="#FFFFFF" fill="none" />
<path d="M 48 16.15 L 50 16.15" stroke-width="0.15" stroke="#FFFFFF" fill="none" />
<path d="M 48 17.85 L 50 17.85" stroke-width="0.15" stroke="#FFFFFF" fill="none" />
<path d="M 48 20 L 50 20" stroke-width="0.15" stroke="#FFFFFF" fill="none" />
<path d="M 48 22.15 L 50 22.15" stroke-width="0.15" stroke="#FFFFFF" fill="none" />
<path d="M 48 23.85 L 50 23.85" stroke-width="0.15" stroke="#FFFFFF" fill="none" />



<path d="M 3 7 L 3 9 L 9.91 9 L 9.91 7 L 3 7" fill="#FFFFFF"/>
<path d="M 49 7 L 49 9 L 42.09 9 L 42.09 7 L 49 7" fill="#FFFFFF"/>

<path d="M 42 8 L 42 13 L 37 13 L 37 26 L 48 26 L 48 8 M 10 8 L 10 4 L 21 4 L 21 0 L 0 0 L 0 8" stroke="#ff0000" stroke-width="0.1" fill="none"/>

<path d="M 4 8 L 4 26 L 15 26 L 15 13 L 10 13 L 10 8 M 52 8 L 52 0 L 31 0 L 31 4 L 42 4 L 42 8" stroke="#0000FF" stroke-width="0.1" fill="none"/>



<path d="M 12 21 L 12 26 M 40 20 L 40 26" stroke="#000000" stroke-opacity="0.5" stroke-width="0.3"/>
<path d="M 0 0 h 52 v 26 H 0 0 L 0 0 " stroke="#000000" stroke-width="0.1" fill="none"/>

<path d="M 2 8 L 5 8" stroke-width="0.15" stroke="#FFFFFF"/>
<path d="M 47 8 L 50 8" stroke-width="0.15" stroke="#FFFFFF"/>
<circle cx="23" cy="23" r="0.1" /><circle cx="23" cy="19" r="0.1"  /><circle cx="23" cy="15" r="0.1"  /><circle cx="23" cy="11" r="0.1"  /><circle cx= "29" cy="23" r="0.1"  /><circle cx= "29" cy="19" r="0.1"  /><circle cx= "29" cy="15" r="0.1"  /><circle cx="29" cy="11" r="0.1" />

</svg>